<svg id="Gemini_Generated_Image_ti4jsqti4jsqti4j_0-00-00-00_Image" data-name="Gemini_Generated_Image_ti4jsqti4jsqti4j (0-00-00-00) Image" xmlns="http://www.w3.org/2000/svg" xmlns:xlink="http://www.w3.org/1999/xlink" viewBox="0 0 608.679 519.933">
                    <style>
                        path, rect, circle, ellipse, line, polyline, polygon { 
                            fill: currentColor;
                        }
                        @media (prefers-color-scheme: dark) {
                            path, rect, circle, ellipse, line, polyline, polygon { 
                                fill: #fff;
                            }
                        }
                    </style>
  <defs>
    <style>
      .cls-1 {
        stroke: #fff;
        stroke-miterlimit: 10;
        fill: url(#linear-gradient);
      }
    </style>
    <linearGradient id="linear-gradient" x1="0.5" y1="259.967" x2="608.179" y2="259.967" gradientUnits="userSpaceOnUse">
      <stop offset="0.004" stop-color="#00a872"/>
      <stop offset="0.122" stop-color="#0fb47d"/>
      <stop offset="0.515" stop-color="#3ad89f"/>
      <stop offset="0.82" stop-color="#55eeb4"/>
      <stop offset="1" stop-color="#5ff6bc"/>
    </linearGradient>
  </defs>
  <path class="cls-1" d="M320.68,274.691C284.958,342.694,249.745,410.4,212,476.77l1.377,1.012q2.81-2.974,5.618-5.948c5.9-6.259,11.78-12.54,17.716-18.767,1.606-1.685,3.453-3.14,5.066-4.819,52.166-54.283,104.476-108.428,156.386-162.955,18.712-19.655,36.5-40.195,54.6-60.421,3.054-3.412,6.239-6.8,3.063-12.294-3.1-5.361-7.589-8.068-13.316-8.244-14.32-.439-28.654-.484-42.983-.54-19.656-.078-39.312-.02-59.568-.02,3.6-6.341,6.814-12.012,10.037-17.679q38.758-68.147,77.565-136.266c4.456-7.8,9.574-15.215,14.221-22.908a33.3,33.3,0,0,1,13.386-12.355C483.577-.446,513.529-4.281,543.5,7.16c35.738,13.642,56.363,40.726,63,78.731,4.1,23.447.625,45.5-9.738,66.488-10.68,21.628-22.044,42.922-33.257,64.284-21.657,41.261-43.176,82.6-65.215,123.656-17.392,32.4-34.721,64.875-53.451,96.5-22.389,37.806-54.255,65.061-97.332,76.4-61.875,16.294-115.433.212-160.477-44.809-14.218-14.211-25.565-30.467-34.978-48.346-43.5-82.613-87.522-164.946-131.033-247.551C14.15,159.476,6.594,146.077,3.435,131.93c-8.061-36.1.51-68.856,25.377-96.911C51.664,9.236,81.481-.235,114.457.882c29.494,1,55.441,12.869,77.591,32.727a161.5,161.5,0,0,1,34.6,43.006C241.463,103.8,256,131.132,270.841,158.3c1.537,2.814.764,4.538-.72,6.674-19.765,28.447-39.285,57.069-59.359,85.3-8.463,11.9-1.716,22.847,10.424,23.6,3.318.207,6.644.418,9.966.427q43.215.117,86.431.163C318.373,274.464,319.164,274.576,320.68,274.691Z"/>
</svg>
